<svg xmlns="http://www.w3.org/2000/svg" viewBox="0 0 512 512" width="512" height="512"><defs><filter id="sh-i-rpsm-checkout-B" x="-40%" y="-40%" width="180%" height="180%"><feDropShadow dx="0" dy="5" stdDeviation="7" flood-color="#000000" flood-opacity="0.26"/></filter></defs><rect x="0" y="0" width="512" height="512" rx="112" ry="112" fill="#d17954"/><circle cx="256" cy="256" r="150" fill="#c0613c"/><g transform="translate(107.5,107.5) scale(2.97)" filter="url(#sh-i-rpsm-checkout-B)" stroke-linecap="round" stroke-linejoin="round">
      <path d="M8 20 L20 20 L29 58 L82 58" fill="none" stroke="#fff" stroke-width="6" stroke-linecap="round" stroke-linejoin="round"/>
      <path d="M24 30 L90 30 L82 54 L31 54 Z" fill="#fff"/>
      <line x1="41" y1="33" x2="39" y2="51" stroke="#d17954" stroke-width="3"/>
      <line x1="53" y1="33" x2="53" y2="51" stroke="#d17954" stroke-width="3"/>
      <line x1="65" y1="33" x2="67" y2="51" stroke="#d17954" stroke-width="3"/>
      <circle cx="40" cy="71" r="6.5" fill="#fff"/>
      <circle cx="74" cy="71" r="6.5" fill="#fff"/>
      <circle cx="79" cy="24" r="14" fill="#f6c0aa"/>
      <path d="M72 24 L78 30 L87 18" fill="none" stroke="#d17954" stroke-width="4.5"/></g></svg>